<?xml version="1.0" standalone="no"?>
<!DOCTYPE svg PUBLIC "-//W3C//DTD SVG 20010904//EN"
 "http://www.w3.org/TR/2001/REC-SVG-20010904/DTD/svg10.dtd">
<svg version="1.0" xmlns="http://www.w3.org/2000/svg"
 width="100.000000pt" height="100.000000pt" viewBox="0 0 100.000000 100.000000"
 preserveAspectRatio="xMidYMid meet">
<metadata>
Created by potrace 1.14, written by Peter Selinger 2001-2017
</metadata>
<g transform="translate(0.000000,100.000000) scale(0.100000,-0.100000)"
fill="#000000" stroke="none">
<path d="M393 925 c-174 -47 -295 -181 -326 -360 -31 -181 73 -379 240 -457
131 -62 262 -61 390 2 166 82 267 276 236 455 -44 259 -295 426 -540 360z
m282 -50 c77 -37 163 -123 201 -200 27 -56 29 -68 29 -175 0 -107 -2 -119 -29
-175 -38 -77 -124 -163 -201 -201 -56 -27 -68 -29 -175 -29 -107 0 -119 2
-175 29 -77 38 -163 124 -201 201 -27 56 -29 68 -29 175 0 105 2 120 27 170
51 105 136 182 241 221 82 30 232 23 312 -16z"/>
<path d="M561 515 c-74 -91 -137 -165 -142 -165 -4 0 -32 27 -62 60 -49 54
-77 73 -77 52 0 -11 134 -142 145 -141 9 0 285 331 293 351 2 4 -2 8 -10 8 -7
-1 -73 -75 -147 -165z"/>
</g>
</svg>
